<svg width="80" height="96" viewBox="0 0 80 96" xmlns="http://www.w3.org/2000/svg" role="img" aria-label="FindMyTree.Online logo mark">
  <title>FindMyTree.Online</title>

  <!-- Background tree — cyan family -->
  <path d="M18 96 L18 62 Q17 58 20 55 Q22 52 22 48" stroke="#0A3A40" stroke-width="4" fill="none" stroke-linecap="round"/>
  <path d="M20 70 Q10 62 6 54"  stroke="#0A3A40" stroke-width="2.5" fill="none" stroke-linecap="round"/>
  <path d="M20 60 Q12 50 10 42" stroke="#0A3A40" stroke-width="2"   fill="none" stroke-linecap="round"/>
  <path d="M21 52 Q28 42 26 34" stroke="#0A3A40" stroke-width="2"   fill="none" stroke-linecap="round"/>
  <g opacity="0.52">
    <g transform="rotate(-20 8 34)">
      <ellipse cx="8"  cy="34" rx="5"   ry="7"   fill="#003D48"/>
      <ellipse cx="12" cy="30" rx="4"   ry="6.5" fill="#004D58"/>
      <ellipse cx="6"  cy="30" rx="3.5" ry="5.5" fill="#005A62"/>
      <ellipse cx="8"  cy="34" rx="2"   ry="3"   fill="#00A0A8" opacity="0.6"/>
      <ellipse cx="12" cy="30" rx="1.5" ry="2.5" fill="#00B0B8" opacity="0.55"/>
    </g>
    <g transform="rotate(-15 4 48)">
      <ellipse cx="4" cy="48" rx="4.5" ry="6.5" fill="#003848"/>
      <ellipse cx="8" cy="44" rx="4"   ry="6"   fill="#004555"/>
      <ellipse cx="5" cy="44" rx="1.8" ry="2.8" fill="#009AA5" opacity="0.5"/>
    </g>
  </g>

  <!-- Foreground tree — green family -->
  <path d="M42 96 Q38 90 35 88" stroke="#0A2A10" stroke-width="3"   fill="none" stroke-linecap="round"/>
  <path d="M42 96 Q46 90 50 88" stroke="#0A2A10" stroke-width="2.5" fill="none" stroke-linecap="round"/>
  <path d="M42 96 L42 68 Q41 62 44 56 Q46 50 45 44 Q44 38 46 30 Q47 22 44 14" stroke="#0F2A14" stroke-width="5.5" fill="none" stroke-linecap="round"/>
  <path d="M42 96 L42 68 Q41 62 44 56 Q46 50 45 44 Q44 38 46 30 Q47 22 44 14" stroke="#163820" stroke-width="3.5" fill="none" stroke-linecap="round"/>
  <path d="M43 72 Q30 64 24 56" stroke="#163820" stroke-width="3"   fill="none" stroke-linecap="round"/>
  <path d="M44 62 Q54 54 60 46" stroke="#163820" stroke-width="2.5" fill="none" stroke-linecap="round"/>
  <path d="M44 54 Q34 44 30 34" stroke="#163820" stroke-width="2.5" fill="none" stroke-linecap="round"/>
  <path d="M45 46 Q56 38 62 28" stroke="#163820" stroke-width="2"   fill="none" stroke-linecap="round"/>
  <path d="M45 38 Q36 28 36 18" stroke="#163820" stroke-width="2"   fill="none" stroke-linecap="round"/>
  <path d="M45 30 Q54 22 56 12" stroke="#163820" stroke-width="1.5" fill="none" stroke-linecap="round"/>

  <!-- Green magnolia blooms -->
  <g transform="rotate(-25 26 56)">
    <ellipse cx="26" cy="56" rx="7"   ry="10"  fill="#003A0A"/>
    <ellipse cx="26" cy="52" rx="5"   ry="8"   fill="#006018"/>
    <ellipse cx="26" cy="49" rx="1.8" ry="3"   fill="#00C030"/>
    <ellipse cx="26" cy="48.5" rx="0.9" ry="1.5" fill="#00E040"/>
  </g>
  <g transform="rotate(15 62 32)">
    <ellipse cx="62" cy="32" rx="6.5" ry="9.5" fill="#003A0A"/>
    <ellipse cx="62" cy="28" rx="4.5" ry="7.5" fill="#006018"/>
    <ellipse cx="62" cy="25" rx="1.6" ry="2.8" fill="#00B02A"/>
    <ellipse cx="62" cy="24.5" rx="0.8" ry="1.4" fill="#00E040"/>
  </g>
  <g transform="rotate(-40 32 36)">
    <ellipse cx="32" cy="36" rx="4.5" ry="8"   fill="#003A0A"/>
    <ellipse cx="32" cy="32" rx="3"   ry="6"   fill="#006818"/>
    <ellipse cx="32" cy="29" rx="0.9" ry="1.8" fill="#00D030"/>
  </g>
  <g transform="rotate(5 44 14)">
    <ellipse cx="44" cy="14" rx="7"   ry="9"   fill="#003A0A"/>
    <ellipse cx="44" cy="10" rx="5"   ry="7"   fill="#006A1A"/>
    <ellipse cx="44" cy="7"  rx="1.8" ry="2.8" fill="#00C030"/>
    <ellipse cx="44" cy="6.5" rx="0.9" ry="1.4" fill="#00E040"/>
  </g>
  <g transform="rotate(30 56 12)">
    <ellipse cx="56" cy="12" rx="4"   ry="7"   fill="#003A0A"/>
    <ellipse cx="56" cy="8"  rx="2.2" ry="4.5" fill="#007020"/>
    <ellipse cx="56" cy="6.5" rx="0.6" ry="1.1" fill="#00E040"/>
  </g>
  <g transform="rotate(45 68 46)">
    <ellipse cx="68" cy="46" rx="5.5" ry="8"   fill="#003A0A"/>
    <ellipse cx="68" cy="42" rx="3.5" ry="6"   fill="#006A1A"/>
    <ellipse cx="68" cy="38.5" rx="0.6" ry="1" fill="#00E040"/>
  </g>
  <g transform="rotate(-50 24 68)">
    <ellipse cx="24" cy="68" rx="4"   ry="6.5" fill="#003A0A"/>
    <ellipse cx="24" cy="64" rx="2"   ry="4"   fill="#007020"/>
    <ellipse cx="24" cy="63" rx="1"   ry="2"   fill="#00B028"/>
  </g>
  <g transform="rotate(-15 36 18)">
    <ellipse cx="36" cy="18" rx="3.5" ry="6"   fill="#003A0A"/>
    <ellipse cx="36" cy="14" rx="1.8" ry="3.5" fill="#007520"/>
    <ellipse cx="36" cy="13" rx="0.9" ry="1.8" fill="#00B02A"/>
  </g>

  <!-- Fallen petal accents -->
  <ellipse cx="50" cy="70" rx="2.5" ry="4"   fill="#004A0E" opacity="0.65" transform="rotate(40 50 70)"/>
  <ellipse cx="68" cy="62" rx="2"   ry="3.5" fill="#005214" opacity="0.55" transform="rotate(-20 68 62)"/>

</svg>
